<?xml version="1.0" encoding="utf-8"?>
<!-- Generator: Adobe Illustrator 16.0.0, SVG Export Plug-In . SVG Version: 6.00 Build 0)  -->
<!DOCTYPE svg PUBLIC "-//W3C//DTD SVG 1.1//EN" "http://www.w3.org/Graphics/SVG/1.1/DTD/svg11.dtd">
<svg version="1.1" id="Ebene_1" xmlns="http://www.w3.org/2000/svg" xmlns:xlink="http://www.w3.org/1999/xlink" x="0px" y="0px"
	 width="64px" height="64px" viewBox="0 0 64 64" enable-background="new 0 0 64 64" xml:space="preserve">
<path fill="#5EC4D0" d="M32,5.333c0.736,0,1.364,0.26,1.885,0.781c0.521,0.521,0.781,1.149,0.781,1.885v21.333h21.333
	c0.735,0,1.364,0.26,1.885,0.781c0.521,0.521,0.781,1.149,0.781,1.885c0,0.736-0.261,1.364-0.781,1.885
	c-0.521,0.521-1.149,0.781-1.885,0.781H34.666v21.333c0,0.735-0.26,1.364-0.781,1.885c-0.521,0.521-1.148,0.781-1.885,0.781
	c-0.736,0-1.364-0.261-1.885-0.781c-0.521-0.521-0.781-1.149-0.781-1.885V34.664H8.001c-0.736,0-1.364-0.26-1.885-0.781
	c-0.521-0.521-0.781-1.148-0.781-1.885c0-0.736,0.26-1.364,0.781-1.885c0.521-0.521,1.149-0.781,1.885-0.781h21.333V7.999
	c0-0.736,0.26-1.364,0.781-1.885C30.636,5.593,31.264,5.333,32,5.333z"/>
</svg>
