<?xml version="1.0" encoding="utf-8"?>
<!-- Generator: Adobe Illustrator 16.0.0, SVG Export Plug-In . SVG Version: 6.00 Build 0)  -->
<!DOCTYPE svg PUBLIC "-//W3C//DTD SVG 1.1//EN" "http://www.w3.org/Graphics/SVG/1.1/DTD/svg11.dtd">
<svg version="1.1" id="Ebene_1" xmlns="http://www.w3.org/2000/svg" xmlns:xlink="http://www.w3.org/1999/xlink" x="0px" y="0px"
	 width="64px" height="64px" viewBox="0 0 64 64" enable-background="new 0 0 64 64" xml:space="preserve">
<path fill="#FFFFFF" d="M2.667,34.667h16c0.736,0,1.364,0.261,1.885,0.78c0.521,0.521,0.781,1.15,0.781,1.886
	s-0.26,1.364-0.781,1.886c-0.521,0.52-1.149,0.78-1.885,0.78h-9l7.25,7.083c2.055,2.069,4.41,3.632,7.063,4.688
	c2.542,1.043,5.216,1.563,8.021,1.563c2.806,0,5.479-0.521,8.021-1.563c1.389-0.568,2.691-1.268,3.906-2.094
	c1.216-0.826,2.25-1.674,3.104-2.542s1.632-1.798,2.333-2.792c0.701-0.993,1.264-1.906,1.688-2.74
	c0.424-0.833,0.781-1.666,1.073-2.5c0.25-0.694,0.708-1.197,1.375-1.51s1.341-0.35,2.021-0.115c0.695,0.25,1.199,0.705,1.511,1.365
	s0.351,1.33,0.114,2.01c-0.583,1.778-1.43,3.543-2.541,5.293s-2.361,3.318-3.75,4.707c-2.556,2.556-5.494,4.508-8.813,5.854
	C38.82,58.012,35.473,58.664,32,58.664c-3.458,0-6.806-0.652-10.042-1.958c-3.319-1.347-6.257-3.299-8.813-5.854l-7.813-7.646
	v10.125c0,0.735-0.26,1.364-0.781,1.885c-0.521,0.521-1.149,0.781-1.885,0.781s-1.364-0.261-1.885-0.781
	C0.26,54.695,0,54.066,0,53.331v-16c0-0.735,0.26-1.364,0.781-1.886c0.521-0.52,1.149-0.78,1.885-0.78L2.667,34.667z M32,5.333
	c3.459,0,6.807,0.653,10.042,1.958c3.319,1.347,6.257,3.299,8.813,5.854l0.041,0.042l7.771,7.604V10.666
	c0-0.736,0.26-1.364,0.781-1.885C59.97,8.26,60.598,8,61.334,8s1.364,0.26,1.885,0.781C63.74,9.302,64,9.93,64,10.666v16
	c0,0.736-0.26,1.364-0.781,1.885c-0.521,0.521-1.148,0.781-1.885,0.781h-16c-0.736,0-1.364-0.26-1.885-0.781
	c-0.521-0.521-0.781-1.149-0.781-1.885s0.26-1.364,0.781-1.885C43.97,24.26,44.598,24,45.334,24h9l-7.25-7.083
	c-2.027-2.028-4.337-3.577-6.927-4.646c-2.591-1.069-5.31-1.604-8.156-1.604c-2.805,0-5.479,0.521-8.021,1.563
	c-2.653,1.055-5.007,2.618-7.063,4.688c-0.833,0.736-1.747,1.858-2.74,3.365c-0.994,1.507-1.761,3.045-2.302,4.615
	c-0.25,0.695-0.708,1.198-1.375,1.51s-1.34,0.35-2.021,0.115c-0.695-0.25-1.198-0.705-1.51-1.365c-0.312-0.66-0.351-1.33-0.115-2.01
	c0.583-1.778,1.431-3.542,2.542-5.292s2.361-3.319,3.75-4.708c2.555-2.555,5.493-4.507,8.813-5.854
	c3.236-1.305,6.583-1.958,10.042-1.958L32,5.333z"/>
</svg>
