<?xml version="1.0" encoding="utf-8"?>
<!-- Generator: Adobe Illustrator 16.0.0, SVG Export Plug-In . SVG Version: 6.00 Build 0)  -->
<!DOCTYPE svg PUBLIC "-//W3C//DTD SVG 1.1//EN" "http://www.w3.org/Graphics/SVG/1.1/DTD/svg11.dtd">
<svg version="1.1" id="Ebene_1" xmlns="http://www.w3.org/2000/svg" xmlns:xlink="http://www.w3.org/1999/xlink" x="0px" y="0px"
	 width="64px" height="64px" viewBox="0 0 64 64" enable-background="new 0 0 64 64" xml:space="preserve">
<path fill="#FFFFFF" d="M37.333,10.667c0.75,0,1.382,0.257,1.896,0.771l18.668,18.667c0.514,0.514,0.771,1.146,0.771,1.896
	s-0.257,1.382-0.771,1.896L39.229,52.564c-0.514,0.514-1.146,0.771-1.896,0.771c-0.765,0-1.399-0.253-1.905-0.76
	c-0.508-0.507-0.761-1.142-0.761-1.906c0-0.75,0.257-1.382,0.771-1.896l14.125-14.104H8c-0.736,0-1.364-0.261-1.885-0.78
	c-0.521-0.521-0.781-1.15-0.781-1.886c0-0.736,0.26-1.364,0.781-1.885C6.636,29.597,7.264,29.337,8,29.337h41.562L35.438,15.233
	c-0.514-0.514-0.771-1.146-0.771-1.896c0-0.764,0.253-1.399,0.761-1.906c0.506-0.507,1.141-0.76,1.905-0.76V10.667z"/>
</svg>
