<?xml version="1.0" encoding="utf-8"?>
<!-- Generator: Adobe Illustrator 16.0.0, SVG Export Plug-In . SVG Version: 6.00 Build 0)  -->
<!DOCTYPE svg PUBLIC "-//W3C//DTD SVG 1.1//EN" "http://www.w3.org/Graphics/SVG/1.1/DTD/svg11.dtd">
<svg version="1.1" id="Ebene_1" xmlns="http://www.w3.org/2000/svg" xmlns:xlink="http://www.w3.org/1999/xlink" x="0px" y="0px"
	 width="64px" height="64px" viewBox="0 0 64 64" enable-background="new 0 0 64 64" xml:space="preserve">
<path fill="#FFFFFF" d="M56,13.333c0.764,0,1.399,0.253,1.906,0.76c0.506,0.506,0.76,1.142,0.76,1.906
	c0,0.75-0.257,1.382-0.771,1.896l-32,32c-0.514,0.515-1.146,0.771-1.896,0.771s-1.382-0.257-1.896-0.771l-16-16
	c-0.514-0.514-0.771-1.146-0.771-1.896c0-0.764,0.253-1.399,0.76-1.906c0.507-0.507,1.142-0.76,1.906-0.76
	c0.75,0,1.382,0.257,1.896,0.771l14.104,14.125l30.104-30.125c0.515-0.514,1.146-0.771,1.896-0.771H56z"/>
</svg>
