<?xml version="1.0" encoding="utf-8"?>
<!-- Generator: Adobe Illustrator 16.0.0, SVG Export Plug-In . SVG Version: 6.00 Build 0)  -->
<!DOCTYPE svg PUBLIC "-//W3C//DTD SVG 1.1//EN" "http://www.w3.org/Graphics/SVG/1.1/DTD/svg11.dtd">
<svg version="1.1" id="Ebene_1" xmlns="http://www.w3.org/2000/svg" xmlns:xlink="http://www.w3.org/1999/xlink" x="0px" y="0px"
	 width="64px" height="64px" viewBox="0 0 64 64" enable-background="new 0 0 64 64" xml:space="preserve">
<path fill="#BA4848" d="M50.667,10.667c0.765,0,1.399,0.253,1.905,0.76c0.508,0.506,0.761,1.142,0.761,1.906
	c0,0.75-0.257,1.382-0.771,1.896L35.77,32l16.793,16.771c0.514,0.514,0.771,1.146,0.771,1.896c0,0.765-0.253,1.399-0.761,1.905
	c-0.506,0.508-1.141,0.761-1.905,0.761c-0.75,0-1.382-0.257-1.896-0.771L32,35.77L15.229,52.562
	c-0.514,0.514-1.146,0.771-1.896,0.771c-0.764,0-1.399-0.253-1.906-0.761c-0.507-0.506-0.76-1.141-0.76-1.905
	c0-0.75,0.257-1.382,0.771-1.896L28.23,32L11.438,15.229c-0.514-0.514-0.771-1.146-0.771-1.896c0-0.764,0.253-1.399,0.76-1.906
	c0.506-0.507,1.142-0.76,1.906-0.76c0.75,0,1.382,0.257,1.896,0.771L32,28.23l16.771-16.792
	C49.285,10.924,49.917,10.667,50.667,10.667z"/>
</svg>
