<?xml version="1.0" encoding="utf-8"?>
<!-- Generator: Adobe Illustrator 16.0.0, SVG Export Plug-In . SVG Version: 6.00 Build 0)  -->
<!DOCTYPE svg PUBLIC "-//W3C//DTD SVG 1.1//EN" "http://www.w3.org/Graphics/SVG/1.1/DTD/svg11.dtd">
<svg version="1.1" id="Ebene_1" xmlns="http://www.w3.org/2000/svg" xmlns:xlink="http://www.w3.org/1999/xlink" x="0px" y="0px"
	 width="417.453px" height="492.857px" viewBox="310.645 182.281 417.453 492.857"
	 enable-background="new 310.645 182.281 417.453 492.857" xml:space="preserve">
<g>
	<path fill="#FFFFFF" d="M509.165,417.633c62.742,0,113.783-51.04,113.783-113.783c0-62.744-51.041-113.784-113.783-113.784
		c-62.739,0-113.783,51.041-113.783,113.784C395.382,366.593,446.426,417.633,509.165,417.633z M509.165,200.903
		c56.766,0,102.946,46.187,102.946,102.947c0,56.765-46.182,102.947-102.945,102.947c-56.762,0-102.948-46.182-102.948-102.947
		C406.218,247.09,452.395,200.903,509.165,200.903z M460.4,482.653c-12.359,0-21.674,9.312-21.674,21.673v16.254
		c0,2.984,2.43,5.419,5.42,5.419h130.037c2.995,0,5.419-2.435,5.419-5.419v-15.438c0-12.613-9.525-22.487-21.673-22.487
		L460.4,482.653L460.4,482.653z M568.766,505.142v10.021H449.563v-10.836c0-6.381,4.455-10.836,10.837-10.836h97.529
		C564.11,493.49,568.766,498.495,568.766,505.142z M503.779,449.911c0,0.062-0.033,0.104-0.033,0.168v17.377
		c0,2.995,2.426,5.418,5.421,5.418c2.993,0,5.416-2.423,5.416-5.418v-17.377c0-0.085-0.041-0.146-0.041-0.211
		c35.038-1.408,67.929-14.921,93.603-38.817l12.794,12.785c2.106,2.115,5.546,2.115,7.663,0c2.104-2.118,2.104-5.546,0-7.662
		l-16.542-16.542c-2.115-2.104-5.544-2.104-7.66,0c-25.59,25.588-59.613,39.674-95.796,39.674c-36.18,0-70.198-14.086-95.782-39.674
		c-25.588-25.578-39.674-59.601-39.674-95.782c0-36.182,14.086-70.2,39.674-95.783c2.112-2.117,2.112-5.55,0-7.662l-16.539-16.541
		c-2.11-2.11-5.547-2.11-7.655,0c-2.116,2.116-2.116,5.551,0,7.662l12.771,12.79c-25.26,27.123-39.086,62.278-39.086,99.534
		c0,39.065,15.213,75.813,42.85,103.445C431.643,433.783,466.528,448.704,503.779,449.911z"/>
	<path fill="#FFFFFF" d="M544.698,347.929c-1.542,0-3.084-0.588-4.261-1.765l-37.188-37.187c-2.354-2.353-2.354-6.168,0-8.522
		c2.354-2.353,6.169-2.353,8.521,0l37.188,37.187c2.354,2.353,2.354,6.168,0,8.522C547.782,347.34,546.24,347.929,544.698,347.929z"
		/>
	<path fill="#FFFFFF" d="M509,312c-2.763,0-5-2.239-5-5v-75c0-2.761,2.237-5,5-5c2.762,0,5,2.239,5,5v75
		C514,309.761,511.762,312,509,312z"/>
	<circle fill="#FFFFFF" cx="509.125" cy="305.779" r="12.531"/>
</g>
<g>
	<g>
		<path fill="#FFFFFF" d="M330.146,654.142l2.511,11.846h0.359l2.991-11.846l13.758-43.724h6.162l13.758,43.724l2.99,12.204h0.357
			l2.812-12.204l11.545-43.724h7.658l-18.845,64.721h-6.102l-14.655-44.263l-2.573-10.473h-0.356l-2.572,10.473l-14.356,44.263
			h-6.16l-18.783-64.721h7.656L330.146,654.142z"/>
	</g>
	<g>
		<path fill="#FFFFFF" d="M519.285,654.142l2.513,11.846h0.357l2.99-11.846l13.76-43.724h6.162l13.757,43.724l2.989,12.204h0.359
			l2.812-12.204l11.544-43.724h7.658l-18.843,64.721h-6.103l-14.654-44.263l-2.573-10.473h-0.358l-2.57,10.473l-14.357,44.263
			h-6.161l-18.784-64.721h7.658L519.285,654.142z"/>
	</g>
	<g>
		<path fill="#FFFFFF" d="M613.059,654.142l2.511,11.846h0.359l2.99-11.846l13.76-43.724h6.161l13.758,43.724l2.99,12.204h0.358
			l2.812-12.204l11.544-43.724h7.658l-18.844,64.721h-6.103l-14.654-44.263l-2.574-10.473h-0.356l-2.571,10.473L618.5,675.139h-6.16
			l-18.782-64.721h7.656L613.059,654.142z"/>
	</g>
	<g>
		<path fill="#FFFFFF" d="M424.716,654.142l2.512,11.846h0.359l2.988-11.846l13.759-43.724h6.162l13.76,43.724l2.988,12.204h0.359
			l2.812-12.204l11.545-43.724h7.656l-18.843,64.721h-6.102l-14.655-44.263l-2.573-10.473h-0.356l-2.572,10.473l-14.357,44.263
			h-6.159l-18.783-64.721h7.656L424.716,654.142z"/>
	</g>
	<rect x="569" y="640" fill="#FFFFFF" width="39" height="6"/>
	<rect x="477" y="640" fill="#FFFFFF" width="35" height="6"/>
	<rect x="382" y="640" fill="#FFFFFF" width="38" height="6"/>
	<path fill="#FFFFFF" d="M695.698,617.145c14.056,0,25.488,11.435,25.488,25.486c0,14.057-11.434,25.49-25.488,25.49
		c-14.054,0-25.487-11.436-25.487-25.49C670.21,628.578,681.644,617.145,695.698,617.145 M695.698,610.232
		c-17.895,0-32.399,14.506-32.399,32.397c0,17.896,14.506,32.402,32.399,32.402c17.896,0,32.4-14.506,32.4-32.402
		C728.099,624.738,713.594,610.232,695.698,610.232L695.698,610.232z"/>
</g>
</svg>
