<?xml version="1.0" encoding="utf-8"?>
<!-- Generator: Adobe Illustrator 16.0.0, SVG Export Plug-In . SVG Version: 6.00 Build 0)  -->
<!DOCTYPE svg PUBLIC "-//W3C//DTD SVG 1.1//EN" "http://www.w3.org/Graphics/SVG/1.1/DTD/svg11.dtd">
<svg version="1.1" id="Ebene_1" xmlns="http://www.w3.org/2000/svg" xmlns:xlink="http://www.w3.org/1999/xlink" x="0px" y="0px"
	 width="244.49px" height="313.719px" viewBox="0 0 244.49 313.719" enable-background="new 0 0 244.49 313.719"
	 xml:space="preserve">
<path fill="#FFFFFF" d="M134.038,214.811c57.268,0,103.854-46.585,103.854-103.853c0-57.269-46.586-103.854-103.854-103.854
	c-57.265,0-103.854,46.586-103.854,103.854C30.185,168.225,76.773,214.811,134.038,214.811z M134.038,16.996
	c51.812,0,93.962,42.155,93.962,93.962c0,51.811-42.15,93.962-93.962,93.962c-51.807,0-93.963-42.151-93.963-93.962
	C40.075,59.152,82.222,16.996,134.038,16.996z M89.529,274.156c-11.281,0-19.782,8.5-19.782,19.781v14.835
	c0,2.725,2.217,4.946,4.946,4.946h118.688c2.733,0,4.945-2.223,4.945-4.946v-14.091c0-11.514-8.693-20.525-19.781-20.525H89.529z
	 M188.437,294.682v9.146H79.638v-9.892c0-5.824,4.065-9.891,9.892-9.891h89.017C184.188,284.047,188.437,288.615,188.437,294.682z
	 M129.122,244.271c0,0.058-0.03,0.097-0.03,0.153v15.86c0,2.732,2.214,4.944,4.946,4.944c2.733,0,4.944-2.212,4.944-4.944v-15.86
	c0-0.077-0.038-0.134-0.038-0.192c31.979-1.285,62-13.619,85.434-35.43l11.678,11.669c1.923,1.931,5.062,1.931,6.993,0
	c1.923-1.933,1.923-5.062,0-6.993l-15.098-15.098c-1.931-1.922-5.061-1.922-6.992,0c-23.355,23.354-54.41,36.212-87.435,36.212
	c-33.022,0-64.072-12.856-87.423-36.212C22.747,175.035,9.89,143.981,9.89,110.957c0-33.024,12.855-64.073,36.211-87.423
	c1.928-1.933,1.928-5.066,0-6.993L31.006,1.444c-1.928-1.926-5.062-1.926-6.987,0c-1.933,1.933-1.933,5.066,0,6.993L35.675,20.11
	C12.62,44.867,0,76.954,0,110.958c0,35.655,13.885,69.195,39.109,94.417C63.281,229.551,95.122,243.17,129.122,244.271z"/>
<path fill="#FFFFFF" d="M166.471,151.189c-1.407,0-2.815-0.537-3.889-1.611l-33.942-33.94c-2.148-2.148-2.148-5.63-0.001-7.778
	c2.148-2.147,5.632-2.147,7.778,0l33.942,33.94c2.148,2.148,2.148,5.63,0.001,7.778
	C169.287,150.652,167.879,151.189,166.471,151.189z"/>
<path fill="#FFFFFF" d="M133.5,118.219c-2.485,0-4.5-2.015-4.5-4.5v-68c0-2.485,2.015-4.5,4.5-4.5s4.5,2.015,4.5,4.5v68
	C138,116.204,135.985,118.219,133.5,118.219z"/>
<circle fill="#FFFFFF" cx="134" cy="112.719" r="11.437"/>
</svg>
