<?xml version="1.0" encoding="UTF-8" standalone="no"?>
<!-- Created with Inkscape (http://www.inkscape.org/) -->

<svg
   xmlns:dc="http://purl.org/dc/elements/1.1/"
   xmlns:cc="http://creativecommons.org/ns#"
   xmlns:rdf="http://www.w3.org/1999/02/22-rdf-syntax-ns#"
   xmlns:svg="http://www.w3.org/2000/svg"
   xmlns="http://www.w3.org/2000/svg"
   xmlns:xlink="http://www.w3.org/1999/xlink"
   xmlns:sodipodi="http://sodipodi.sourceforge.net/DTD/sodipodi-0.dtd"
   xmlns:inkscape="http://www.inkscape.org/namespaces/inkscape"
   width="80"
   height="100"
   id="svg2"
   version="1.1"
   inkscape:version="0.48.4 r9939"
   inkscape:export-filename="/home/simon/.data/Projekte/wwww/img/marker_time.png"
   inkscape:export-xdpi="90"
   inkscape:export-ydpi="90"
   sodipodi:docname="markers.svg">
  <defs
     id="defs4">
    <linearGradient
       id="linearGradient3870"
       inkscape:collect="always">
      <stop
         id="stop3872"
         offset="0"
         style="stop-color:#50e330;stop-opacity:1" />
      <stop
         id="stop3874"
         offset="1"
         style="stop-color:#eefdef;stop-opacity:1" />
    </linearGradient>
    <linearGradient
       inkscape:collect="always"
       id="linearGradient3829">
      <stop
         style="stop-color:#a3a3a3;stop-opacity:1"
         offset="0"
         id="stop3831" />
      <stop
         style="stop-color:#f9f9f9;stop-opacity:1"
         offset="1"
         id="stop3833" />
    </linearGradient>
    <filter
       inkscape:collect="always"
       id="filter3825"
       x="-0.21197551"
       width="1.423951"
       y="-0.63679966"
       height="2.2735993">
      <feGaussianBlur
         inkscape:collect="always"
         stdDeviation="5.5614898"
         id="feGaussianBlur3827" />
    </filter>
    <linearGradient
       inkscape:collect="always"
       xlink:href="#linearGradient3870"
       id="linearGradient3835"
       x1="38.73106"
       y1="49.370892"
       x2="38.73106"
       y2="11.451837"
       gradientUnits="userSpaceOnUse" />
    <linearGradient
       inkscape:collect="always"
       xlink:href="#linearGradient3870"
       id="linearGradient3841"
       gradientUnits="userSpaceOnUse"
       x1="38.73106"
       y1="49.370892"
       x2="38.73106"
       y2="11.451837" />
    <linearGradient
       inkscape:collect="always"
       xlink:href="#linearGradient3829"
       id="linearGradient3868"
       gradientUnits="userSpaceOnUse"
       x1="38.73106"
       y1="49.370892"
       x2="38.73106"
       y2="11.451837" />
    <linearGradient
       inkscape:collect="always"
       xlink:href="#linearGradient3870"
       id="linearGradient3878"
       gradientUnits="userSpaceOnUse"
       x1="38.73106"
       y1="49.370892"
       x2="38.73106"
       y2="11.451837" />
  </defs>
  <sodipodi:namedview
     id="base"
     pagecolor="#ffffff"
     bordercolor="#666666"
     borderopacity="1.0"
     inkscape:pageopacity="0.0"
     inkscape:pageshadow="2"
     inkscape:zoom="2.8"
     inkscape:cx="-16.869044"
     inkscape:cy="32.219697"
     inkscape:document-units="px"
     inkscape:current-layer="layer1"
     showgrid="false"
     showguides="true"
     inkscape:guide-bbox="true"
     inkscape:window-width="1920"
     inkscape:window-height="1024"
     inkscape:window-x="0"
     inkscape:window-y="26"
     inkscape:window-maximized="1">
    <sodipodi:guide
       orientation="1,0"
       position="197.32143,539.10714"
       id="guide3759" />
    <sodipodi:guide
       orientation="1,0"
       position="567.5,514.64286"
       id="guide3761" />
  </sodipodi:namedview>
  <metadata
     id="metadata7">
    <rdf:RDF>
      <cc:Work
         rdf:about="">
        <dc:format>image/svg+xml</dc:format>
        <dc:type
           rdf:resource="http://purl.org/dc/dcmitype/StillImage" />
        <dc:title></dc:title>
      </cc:Work>
    </rdf:RDF>
  </metadata>
  <g
     inkscape:label="Layer 1"
     inkscape:groupmode="layer"
     id="layer1"
     transform="translate(0,-952.36218)">
    <path
       sodipodi:nodetypes="sssacas"
       inkscape:connector-curvature="0"
       d="m -31.106584,1034.5985 c 0,-4.158 -14.095761,-7.5287 -31.483767,-7.5287 -17.388005,0 -31.48377,3.3707 -31.48377,7.5287 0,1.4386 2.158365,2.7606 4.621582,4.0291 6.650486,3.425 26.903608,9.4026 26.903608,9.4026 0,0 20.331882,-5.9903 26.954129,-9.4282 2.427601,-1.2603 4.488218,-2.5847 4.488218,-4.0035 z"
       style="opacity:0.17551018;fill:#575757;fill-opacity:1;stroke:none;filter:url(#filter3825)"
       id="path3819" />
    <path
       id="path2987"
       style="fill:#575757;fill-opacity:1;stroke:none"
       d="m -31.106584,985.94138 c 0,-18.11502 -14.095761,-32.80016 -31.483767,-32.80016 -17.388005,0 -31.48377,14.68514 -31.48377,32.80016 0,6.26737 2.158365,12.02711 4.621582,17.55362 6.650486,14.9212 26.903608,40.9638 26.903608,40.9638 0,0 20.331882,-26.0976 26.954129,-41.0755 2.427601,-5.49065 4.488218,-11.26079 4.488218,-17.44192 z"
       inkscape:connector-curvature="0"
       sodipodi:nodetypes="sssacas" />
    <path
       transform="matrix(1.2527933,0,0,1.2527933,-111.35722,946.63539)"
       d="m 57.831234,30.552011 a 18.940361,18.940361 0 1 1 -37.880722,0 18.940361,18.940361 0 1 1 37.880722,0 z"
       sodipodi:ry="18.940361"
       sodipodi:rx="18.940361"
       sodipodi:cy="30.552011"
       sodipodi:cx="38.890873"
       id="path3803"
       style="color:#000000;fill:url(#linearGradient3835);fill-opacity:1;fill-rule:nonzero;stroke:none;stroke-width:5;marker:none;visibility:visible;display:inline;overflow:visible;enable-background:accumulate"
       sodipodi:type="arc" />
    <path
       sodipodi:nodetypes="sssscss"
       inkscape:connector-curvature="0"
       d="m 10.927041,1020.4886 c 0,16.3708 11.702544,30.2434 29.829132,30.2434 18.126606,0 27.624126,-13.8727 27.624126,-30.2434 l 0,-30.17474 c 0,-20.83008 -28.73505,-37.01961 -28.73505,-37.01961 0,0 -28.718208,16.27849 -28.718208,37.12069 z"
       style="fill:#575757;fill-opacity:1;stroke:none"
       id="path3805" />
    <path
       sodipodi:type="arc"
       style="color:#000000;fill:url(#linearGradient3841);fill-opacity:1.0;fill-rule:nonzero;stroke:none;stroke-width:5;marker:none;visibility:visible;display:inline;overflow:visible;enable-background:accumulate"
       id="path3837"
       sodipodi:cx="38.890873"
       sodipodi:cy="30.552011"
       sodipodi:rx="18.940361"
       sodipodi:ry="18.940361"
       d="m 57.831234,30.552011 a 18.940361,18.940361 0 1 1 -37.880722,0 18.940361,18.940361 0 1 1 37.880722,0 z"
       transform="matrix(1.1934435,0,0,1.1934435,-6.559066,984.30188)" />
    <path
       id="path3843"
       style="opacity:0.17551018;fill:#575757;fill-opacity:1;stroke:none;filter:url(#filter3825)"
       d="m 71.393416,1034.5985 c 0,-4.158 -14.095761,-7.5287 -31.483767,-7.5287 -17.388005,0 -31.4837698,3.3707 -31.4837698,7.5287 0,1.4386 2.1583648,2.7606 4.6215818,4.0291 6.650486,3.425 26.903608,9.4026 26.903608,9.4026 0,0 20.331882,-5.9903 26.954129,-9.4282 2.427601,-1.2603 4.488218,-2.5847 4.488218,-4.0035 z"
       inkscape:connector-curvature="0"
       sodipodi:nodetypes="sssacas"
       transform="matrix(0.60286397,0,0,0.60286397,-87.007584,415.26277)" />
    <path
       transform="matrix(0.27311674,0,0,0.27311674,-74.204631,759.17772)"
       sodipodi:nodetypes="sssacas"
       inkscape:connector-curvature="0"
       d="m 71.393416,1034.5985 c 0,-4.158 -14.095761,-7.5287 -31.483767,-7.5287 -17.388005,0 -31.4837698,3.3707 -31.4837698,7.5287 0,1.4386 2.1583648,2.7606 4.6215818,4.0291 6.650486,3.425 26.903608,9.4026 26.903608,9.4026 0,0 20.331882,-5.9903 26.954129,-9.4282 2.427601,-1.2603 4.488218,-2.5847 4.488218,-4.0035 z"
       style="opacity:0.17551018;fill:#575757;fill-opacity:1;stroke:none;filter:url(#filter3825)"
       id="path3845" />
    <path
       sodipodi:type="arc"
       style="color:#000000;fill:url(#linearGradient3868);fill-opacity:1;fill-rule:nonzero;stroke:none;stroke-width:5;marker:none;visibility:visible;display:inline;overflow:visible;enable-background:accumulate"
       id="path3866"
       sodipodi:cx="38.890873"
       sodipodi:cy="30.552011"
       sodipodi:rx="18.940361"
       sodipodi:ry="18.940361"
       d="m 57.831234,30.552011 a 18.940361,18.940361 0 1 1 -37.880722,0 18.940361,18.940361 0 1 1 37.880722,0 z"
       transform="matrix(1.2527933,0,0,1.2527933,-111.35722,870.20682)" />
    <path
       sodipodi:type="arc"
       style="color:#000000;fill:url(#linearGradient3878);fill-opacity:1;fill-rule:nonzero;stroke:none;stroke-width:5;marker:none;visibility:visible;display:inline;overflow:visible;enable-background:accumulate"
       id="path3876"
       sodipodi:cx="38.890873"
       sodipodi:cy="30.552011"
       sodipodi:rx="18.940361"
       sodipodi:ry="18.940361"
       d="m 57.831234,30.552011 a 18.940361,18.940361 0 1 1 -37.880722,0 18.940361,18.940361 0 1 1 37.880722,0 z"
       transform="matrix(1.2527933,0,0,1.2527933,-46.000077,871.63539)" />
  </g>
</svg>
